<mxfile host="app.diagrams.net" agent="Mozilla/5.0 (Macintosh; Intel Mac OS X 10_15_7) AppleWebKit/537.36 (KHTML, like Gecko) Chrome/135.0.0.0 Safari/537.36" version="26.2.14">
  <diagram name="Page-1" id="y6x5_pvcYFnkME_l2Hbv">
    <mxGraphModel dx="2027" dy="1357" grid="1" gridSize="10" guides="1" tooltips="1" connect="1" arrows="1" fold="1" page="1" pageScale="1" pageWidth="850" pageHeight="1100" math="0" shadow="0">
      <root>
        <mxCell id="0" />
        <mxCell id="1" parent="0" />
        <mxCell id="-oCrgrcEi9n6i-i6rDuz-3" value="Start" style="strokeWidth=2;html=1;shape=mxgraph.flowchart.terminator;whiteSpace=wrap;" vertex="1" parent="1">
          <mxGeometry x="110" y="50" width="100" height="50" as="geometry" />
        </mxCell>
        <mxCell id="-oCrgrcEi9n6i-i6rDuz-9" style="edgeStyle=orthogonalEdgeStyle;rounded=0;orthogonalLoop=1;jettySize=auto;html=1;entryX=0.5;entryY=0;entryDx=0;entryDy=0;" edge="1" parent="1" source="-oCrgrcEi9n6i-i6rDuz-4" target="-oCrgrcEi9n6i-i6rDuz-7">
          <mxGeometry relative="1" as="geometry" />
        </mxCell>
        <mxCell id="-oCrgrcEi9n6i-i6rDuz-18" value="Yes" style="edgeLabel;html=1;align=center;verticalAlign=middle;resizable=0;points=[];" vertex="1" connectable="0" parent="-oCrgrcEi9n6i-i6rDuz-9">
          <mxGeometry x="-0.0088" relative="1" as="geometry">
            <mxPoint as="offset" />
          </mxGeometry>
        </mxCell>
        <mxCell id="-oCrgrcEi9n6i-i6rDuz-12" style="edgeStyle=orthogonalEdgeStyle;rounded=0;orthogonalLoop=1;jettySize=auto;html=1;entryX=0;entryY=0.5;entryDx=0;entryDy=0;" edge="1" parent="1" source="-oCrgrcEi9n6i-i6rDuz-4" target="-oCrgrcEi9n6i-i6rDuz-11">
          <mxGeometry relative="1" as="geometry" />
        </mxCell>
        <mxCell id="-oCrgrcEi9n6i-i6rDuz-17" value="No" style="edgeLabel;html=1;align=center;verticalAlign=middle;resizable=0;points=[];" vertex="1" connectable="0" parent="-oCrgrcEi9n6i-i6rDuz-12">
          <mxGeometry x="-0.1412" y="1" relative="1" as="geometry">
            <mxPoint as="offset" />
          </mxGeometry>
        </mxCell>
        <mxCell id="-oCrgrcEi9n6i-i6rDuz-4" value="Has Account?" style="strokeWidth=2;html=1;shape=mxgraph.flowchart.decision;whiteSpace=wrap;" vertex="1" parent="1">
          <mxGeometry x="110" y="140" width="100" height="100" as="geometry" />
        </mxCell>
        <mxCell id="-oCrgrcEi9n6i-i6rDuz-5" style="edgeStyle=orthogonalEdgeStyle;rounded=0;orthogonalLoop=1;jettySize=auto;html=1;entryX=0.5;entryY=0;entryDx=0;entryDy=0;entryPerimeter=0;" edge="1" parent="1" source="-oCrgrcEi9n6i-i6rDuz-3" target="-oCrgrcEi9n6i-i6rDuz-4">
          <mxGeometry relative="1" as="geometry" />
        </mxCell>
        <mxCell id="-oCrgrcEi9n6i-i6rDuz-22" style="edgeStyle=orthogonalEdgeStyle;rounded=0;orthogonalLoop=1;jettySize=auto;html=1;" edge="1" parent="1" source="-oCrgrcEi9n6i-i6rDuz-7" target="-oCrgrcEi9n6i-i6rDuz-20">
          <mxGeometry relative="1" as="geometry" />
        </mxCell>
        <mxCell id="-oCrgrcEi9n6i-i6rDuz-7" value="" style="verticalLabelPosition=bottom;verticalAlign=top;html=1;shape=process;whiteSpace=wrap;rounded=1;size=0.14;arcSize=6;" vertex="1" parent="1">
          <mxGeometry x="110" y="290" width="100" height="60" as="geometry" />
        </mxCell>
        <mxCell id="-oCrgrcEi9n6i-i6rDuz-21" style="edgeStyle=orthogonalEdgeStyle;rounded=0;orthogonalLoop=1;jettySize=auto;html=1;" edge="1" parent="1" source="-oCrgrcEi9n6i-i6rDuz-11" target="-oCrgrcEi9n6i-i6rDuz-20">
          <mxGeometry relative="1" as="geometry" />
        </mxCell>
        <mxCell id="-oCrgrcEi9n6i-i6rDuz-11" value="" style="verticalLabelPosition=bottom;verticalAlign=top;html=1;shape=process;whiteSpace=wrap;rounded=1;size=0.14;arcSize=6;" vertex="1" parent="1">
          <mxGeometry x="270" y="160" width="100" height="60" as="geometry" />
        </mxCell>
        <mxCell id="-oCrgrcEi9n6i-i6rDuz-27" style="edgeStyle=orthogonalEdgeStyle;rounded=0;orthogonalLoop=1;jettySize=auto;html=1;" edge="1" parent="1" source="-oCrgrcEi9n6i-i6rDuz-20" target="-oCrgrcEi9n6i-i6rDuz-26">
          <mxGeometry relative="1" as="geometry" />
        </mxCell>
        <mxCell id="-oCrgrcEi9n6i-i6rDuz-20" value="" style="verticalLabelPosition=bottom;verticalAlign=top;html=1;shape=process;whiteSpace=wrap;rounded=1;size=0.14;arcSize=6;" vertex="1" parent="1">
          <mxGeometry x="270" y="290" width="100" height="60" as="geometry" />
        </mxCell>
        <mxCell id="-oCrgrcEi9n6i-i6rDuz-23" value="Create Account" style="text;html=1;align=center;verticalAlign=middle;whiteSpace=wrap;rounded=0;" vertex="1" parent="1">
          <mxGeometry x="290" y="175" width="60" height="30" as="geometry" />
        </mxCell>
        <mxCell id="-oCrgrcEi9n6i-i6rDuz-24" value="Verification" style="text;html=1;align=center;verticalAlign=middle;whiteSpace=wrap;rounded=0;" vertex="1" parent="1">
          <mxGeometry x="290" y="305" width="60" height="30" as="geometry" />
        </mxCell>
        <mxCell id="-oCrgrcEi9n6i-i6rDuz-25" value="Sign In" style="text;html=1;align=center;verticalAlign=middle;whiteSpace=wrap;rounded=0;" vertex="1" parent="1">
          <mxGeometry x="130" y="305" width="60" height="30" as="geometry" />
        </mxCell>
        <mxCell id="-oCrgrcEi9n6i-i6rDuz-30" value="No" style="edgeStyle=orthogonalEdgeStyle;rounded=0;orthogonalLoop=1;jettySize=auto;html=1;" edge="1" parent="1" source="-oCrgrcEi9n6i-i6rDuz-26" target="-oCrgrcEi9n6i-i6rDuz-28">
          <mxGeometry relative="1" as="geometry" />
        </mxCell>
        <mxCell id="-oCrgrcEi9n6i-i6rDuz-26" value="Has profile information?" style="strokeWidth=2;html=1;shape=mxgraph.flowchart.decision;whiteSpace=wrap;" vertex="1" parent="1">
          <mxGeometry x="410" y="270" width="100" height="100" as="geometry" />
        </mxCell>
        <mxCell id="-oCrgrcEi9n6i-i6rDuz-28" value="" style="verticalLabelPosition=bottom;verticalAlign=top;html=1;shape=process;whiteSpace=wrap;rounded=1;size=0.14;arcSize=6;" vertex="1" parent="1">
          <mxGeometry x="570" y="290" width="100" height="60" as="geometry" />
        </mxCell>
        <mxCell id="-oCrgrcEi9n6i-i6rDuz-29" value="Account Setup" style="text;html=1;align=center;verticalAlign=middle;whiteSpace=wrap;rounded=0;" vertex="1" parent="1">
          <mxGeometry x="590" y="305" width="60" height="30" as="geometry" />
        </mxCell>
        <mxCell id="-oCrgrcEi9n6i-i6rDuz-62" style="edgeStyle=orthogonalEdgeStyle;rounded=0;orthogonalLoop=1;jettySize=auto;html=1;entryX=0.5;entryY=0;entryDx=0;entryDy=0;" edge="1" parent="1" source="-oCrgrcEi9n6i-i6rDuz-35" target="-oCrgrcEi9n6i-i6rDuz-52">
          <mxGeometry relative="1" as="geometry">
            <Array as="points">
              <mxPoint x="390" y="490" />
              <mxPoint x="790" y="490" />
            </Array>
          </mxGeometry>
        </mxCell>
        <mxCell id="-oCrgrcEi9n6i-i6rDuz-63" style="edgeStyle=orthogonalEdgeStyle;rounded=0;orthogonalLoop=1;jettySize=auto;html=1;" edge="1" parent="1" source="-oCrgrcEi9n6i-i6rDuz-35" target="-oCrgrcEi9n6i-i6rDuz-47">
          <mxGeometry relative="1" as="geometry">
            <Array as="points">
              <mxPoint x="390" y="490" />
              <mxPoint x="260" y="490" />
            </Array>
          </mxGeometry>
        </mxCell>
        <mxCell id="-oCrgrcEi9n6i-i6rDuz-64" style="edgeStyle=orthogonalEdgeStyle;rounded=0;orthogonalLoop=1;jettySize=auto;html=1;" edge="1" parent="1" source="-oCrgrcEi9n6i-i6rDuz-35" target="-oCrgrcEi9n6i-i6rDuz-49">
          <mxGeometry relative="1" as="geometry" />
        </mxCell>
        <mxCell id="-oCrgrcEi9n6i-i6rDuz-35" value="Application" style="strokeWidth=2;html=1;shape=mxgraph.flowchart.display;whiteSpace=wrap;" vertex="1" parent="1">
          <mxGeometry x="340" y="410" width="100" height="60" as="geometry" />
        </mxCell>
        <mxCell id="-oCrgrcEi9n6i-i6rDuz-37" style="edgeStyle=orthogonalEdgeStyle;rounded=0;orthogonalLoop=1;jettySize=auto;html=1;" edge="1" parent="1">
          <mxGeometry relative="1" as="geometry">
            <mxPoint x="670" y="310.0000000000002" as="sourcePoint" />
            <mxPoint x="390" y="320" as="targetPoint" />
            <Array as="points">
              <mxPoint x="700" y="310" />
              <mxPoint x="700" y="240" />
              <mxPoint x="390" y="240" />
            </Array>
          </mxGeometry>
        </mxCell>
        <mxCell id="-oCrgrcEi9n6i-i6rDuz-43" value="Main" style="strokeWidth=2;html=1;shape=mxgraph.flowchart.display;whiteSpace=wrap;" vertex="1" parent="1">
          <mxGeometry x="40" y="850" width="100" height="60" as="geometry" />
        </mxCell>
        <mxCell id="-oCrgrcEi9n6i-i6rDuz-79" style="edgeStyle=orthogonalEdgeStyle;rounded=0;orthogonalLoop=1;jettySize=auto;html=1;entryX=0.5;entryY=0;entryDx=0;entryDy=0;" edge="1" parent="1" source="-oCrgrcEi9n6i-i6rDuz-47" target="-oCrgrcEi9n6i-i6rDuz-68">
          <mxGeometry relative="1" as="geometry" />
        </mxCell>
        <mxCell id="-oCrgrcEi9n6i-i6rDuz-47" value="My Groups" style="strokeWidth=2;html=1;shape=mxgraph.flowchart.display;whiteSpace=wrap;" vertex="1" parent="1">
          <mxGeometry x="210" y="520" width="100" height="60" as="geometry" />
        </mxCell>
        <mxCell id="-oCrgrcEi9n6i-i6rDuz-74" style="edgeStyle=orthogonalEdgeStyle;rounded=0;orthogonalLoop=1;jettySize=auto;html=1;entryX=0.5;entryY=0;entryDx=0;entryDy=0;" edge="1" parent="1" source="-oCrgrcEi9n6i-i6rDuz-49" target="-oCrgrcEi9n6i-i6rDuz-72">
          <mxGeometry relative="1" as="geometry" />
        </mxCell>
        <mxCell id="-oCrgrcEi9n6i-i6rDuz-49" value="Events" style="strokeWidth=2;html=1;shape=mxgraph.flowchart.display;whiteSpace=wrap;" vertex="1" parent="1">
          <mxGeometry x="340" y="520" width="100" height="60" as="geometry" />
        </mxCell>
        <mxCell id="-oCrgrcEi9n6i-i6rDuz-50" value="Verification" style="strokeWidth=2;html=1;shape=mxgraph.flowchart.display;whiteSpace=wrap;" vertex="1" parent="1">
          <mxGeometry x="600" y="520" width="100" height="60" as="geometry" />
        </mxCell>
        <mxCell id="-oCrgrcEi9n6i-i6rDuz-51" value="Bookmarks" style="strokeWidth=2;html=1;shape=mxgraph.flowchart.display;whiteSpace=wrap;" vertex="1" parent="1">
          <mxGeometry x="470" y="520" width="100" height="60" as="geometry" />
        </mxCell>
        <mxCell id="-oCrgrcEi9n6i-i6rDuz-52" value="Logout" style="html=1;dashed=0;whiteSpace=wrap;" vertex="1" parent="1">
          <mxGeometry x="740" y="525" width="100" height="50" as="geometry" />
        </mxCell>
        <mxCell id="-oCrgrcEi9n6i-i6rDuz-54" value="End" style="strokeWidth=2;html=1;shape=mxgraph.flowchart.terminator;whiteSpace=wrap;" vertex="1" parent="1">
          <mxGeometry x="740" y="610" width="100" height="50" as="geometry" />
        </mxCell>
        <mxCell id="-oCrgrcEi9n6i-i6rDuz-55" style="edgeStyle=orthogonalEdgeStyle;rounded=0;orthogonalLoop=1;jettySize=auto;html=1;entryX=0.5;entryY=0;entryDx=0;entryDy=0;entryPerimeter=0;" edge="1" parent="1" source="-oCrgrcEi9n6i-i6rDuz-52" target="-oCrgrcEi9n6i-i6rDuz-54">
          <mxGeometry relative="1" as="geometry" />
        </mxCell>
        <mxCell id="-oCrgrcEi9n6i-i6rDuz-59" style="edgeStyle=orthogonalEdgeStyle;rounded=0;orthogonalLoop=1;jettySize=auto;html=1;entryX=0.5;entryY=0;entryDx=0;entryDy=0;entryPerimeter=0;" edge="1" parent="1" source="-oCrgrcEi9n6i-i6rDuz-26" target="-oCrgrcEi9n6i-i6rDuz-35">
          <mxGeometry relative="1" as="geometry" />
        </mxCell>
        <mxCell id="-oCrgrcEi9n6i-i6rDuz-60" value="Yes" style="edgeLabel;html=1;align=center;verticalAlign=middle;resizable=0;points=[];" vertex="1" connectable="0" parent="-oCrgrcEi9n6i-i6rDuz-59">
          <mxGeometry x="-0.0063" y="-1" relative="1" as="geometry">
            <mxPoint as="offset" />
          </mxGeometry>
        </mxCell>
        <mxCell id="-oCrgrcEi9n6i-i6rDuz-61" style="edgeStyle=orthogonalEdgeStyle;rounded=0;orthogonalLoop=1;jettySize=auto;html=1;entryX=0.55;entryY=-0.008;entryDx=0;entryDy=0;entryPerimeter=0;" edge="1" parent="1" source="-oCrgrcEi9n6i-i6rDuz-35" target="-oCrgrcEi9n6i-i6rDuz-43">
          <mxGeometry relative="1" as="geometry">
            <Array as="points">
              <mxPoint x="390" y="490" />
              <mxPoint x="95" y="490" />
            </Array>
          </mxGeometry>
        </mxCell>
        <mxCell id="-oCrgrcEi9n6i-i6rDuz-65" style="edgeStyle=orthogonalEdgeStyle;rounded=0;orthogonalLoop=1;jettySize=auto;html=1;entryX=0.5;entryY=0;entryDx=0;entryDy=0;entryPerimeter=0;" edge="1" parent="1" source="-oCrgrcEi9n6i-i6rDuz-35" target="-oCrgrcEi9n6i-i6rDuz-51">
          <mxGeometry relative="1" as="geometry">
            <Array as="points">
              <mxPoint x="390" y="490" />
              <mxPoint x="520" y="490" />
            </Array>
          </mxGeometry>
        </mxCell>
        <mxCell id="-oCrgrcEi9n6i-i6rDuz-66" style="edgeStyle=orthogonalEdgeStyle;rounded=0;orthogonalLoop=1;jettySize=auto;html=1;entryX=0.5;entryY=0;entryDx=0;entryDy=0;entryPerimeter=0;" edge="1" parent="1" source="-oCrgrcEi9n6i-i6rDuz-35" target="-oCrgrcEi9n6i-i6rDuz-50">
          <mxGeometry relative="1" as="geometry">
            <Array as="points">
              <mxPoint x="390" y="490" />
              <mxPoint x="650" y="490" />
            </Array>
          </mxGeometry>
        </mxCell>
        <mxCell id="-oCrgrcEi9n6i-i6rDuz-68" value="" style="verticalLabelPosition=bottom;verticalAlign=top;html=1;shape=process;whiteSpace=wrap;rounded=1;size=0.14;arcSize=6;" vertex="1" parent="1">
          <mxGeometry x="160" y="640" width="100" height="60" as="geometry" />
        </mxCell>
        <mxCell id="-oCrgrcEi9n6i-i6rDuz-71" value="Group Management" style="text;html=1;align=center;verticalAlign=middle;whiteSpace=wrap;rounded=0;" vertex="1" parent="1">
          <mxGeometry x="180" y="655" width="60" height="30" as="geometry" />
        </mxCell>
        <mxCell id="-oCrgrcEi9n6i-i6rDuz-72" value="" style="verticalLabelPosition=bottom;verticalAlign=top;html=1;shape=process;whiteSpace=wrap;rounded=1;size=0.14;arcSize=6;" vertex="1" parent="1">
          <mxGeometry x="390" y="640" width="100" height="60" as="geometry" />
        </mxCell>
        <mxCell id="-oCrgrcEi9n6i-i6rDuz-73" value="Event Management" style="text;html=1;align=center;verticalAlign=middle;whiteSpace=wrap;rounded=0;" vertex="1" parent="1">
          <mxGeometry x="410" y="655" width="60" height="30" as="geometry" />
        </mxCell>
        <mxCell id="-oCrgrcEi9n6i-i6rDuz-82" style="edgeStyle=orthogonalEdgeStyle;rounded=0;orthogonalLoop=1;jettySize=auto;html=1;entryX=0.5;entryY=1;entryDx=0;entryDy=0;" edge="1" parent="1" source="-oCrgrcEi9n6i-i6rDuz-77" target="-oCrgrcEi9n6i-i6rDuz-68">
          <mxGeometry relative="1" as="geometry" />
        </mxCell>
        <mxCell id="-oCrgrcEi9n6i-i6rDuz-93" style="edgeStyle=orthogonalEdgeStyle;rounded=0;orthogonalLoop=1;jettySize=auto;html=1;entryX=0.5;entryY=1;entryDx=0;entryDy=0;" edge="1" parent="1" source="-oCrgrcEi9n6i-i6rDuz-77" target="-oCrgrcEi9n6i-i6rDuz-87">
          <mxGeometry relative="1" as="geometry" />
        </mxCell>
        <mxCell id="-oCrgrcEi9n6i-i6rDuz-77" value="&lt;div&gt;&lt;br&gt;&lt;/div&gt;Teams, Clubs, Organizers" style="strokeWidth=2;html=1;shape=mxgraph.flowchart.database;whiteSpace=wrap;" vertex="1" parent="1">
          <mxGeometry x="160" y="780" width="100" height="70" as="geometry" />
        </mxCell>
        <mxCell id="-oCrgrcEi9n6i-i6rDuz-94" style="edgeStyle=orthogonalEdgeStyle;rounded=0;orthogonalLoop=1;jettySize=auto;html=1;entryX=0.5;entryY=1;entryDx=0;entryDy=0;" edge="1" parent="1" source="-oCrgrcEi9n6i-i6rDuz-85" target="-oCrgrcEi9n6i-i6rDuz-87">
          <mxGeometry relative="1" as="geometry" />
        </mxCell>
        <mxCell id="-oCrgrcEi9n6i-i6rDuz-85" value="&lt;div&gt;&lt;br&gt;&lt;/div&gt;&lt;div&gt;Events&lt;/div&gt;" style="strokeWidth=2;html=1;shape=mxgraph.flowchart.database;whiteSpace=wrap;" vertex="1" parent="1">
          <mxGeometry x="390" y="780" width="100" height="70" as="geometry" />
        </mxCell>
        <mxCell id="-oCrgrcEi9n6i-i6rDuz-90" style="edgeStyle=orthogonalEdgeStyle;rounded=0;orthogonalLoop=1;jettySize=auto;html=1;entryX=0;entryY=0.425;entryDx=0;entryDy=0;entryPerimeter=0;" edge="1" parent="1" source="-oCrgrcEi9n6i-i6rDuz-87" target="-oCrgrcEi9n6i-i6rDuz-72">
          <mxGeometry relative="1" as="geometry">
            <mxPoint x="320" y="640" as="targetPoint" />
            <Array as="points">
              <mxPoint x="320" y="666" />
              <mxPoint x="370" y="666" />
            </Array>
          </mxGeometry>
        </mxCell>
        <mxCell id="-oCrgrcEi9n6i-i6rDuz-87" value="" style="verticalLabelPosition=bottom;verticalAlign=top;html=1;shape=process;whiteSpace=wrap;rounded=1;size=0.14;arcSize=6;" vertex="1" parent="1">
          <mxGeometry x="270" y="710" width="100" height="60" as="geometry" />
        </mxCell>
        <mxCell id="-oCrgrcEi9n6i-i6rDuz-92" value="Event Authorization" style="text;html=1;align=center;verticalAlign=middle;whiteSpace=wrap;rounded=0;" vertex="1" parent="1">
          <mxGeometry x="290" y="725" width="60" height="30" as="geometry" />
        </mxCell>
        <mxCell id="-oCrgrcEi9n6i-i6rDuz-95" value="Home" style="strokeWidth=2;html=1;shape=mxgraph.flowchart.display;whiteSpace=wrap;" vertex="1" parent="1">
          <mxGeometry x="220" y="900" width="100" height="60" as="geometry" />
        </mxCell>
        <mxCell id="-oCrgrcEi9n6i-i6rDuz-117" style="edgeStyle=orthogonalEdgeStyle;rounded=0;orthogonalLoop=1;jettySize=auto;html=1;entryX=0;entryY=0.5;entryDx=0;entryDy=0;" edge="1" parent="1" source="-oCrgrcEi9n6i-i6rDuz-96" target="-oCrgrcEi9n6i-i6rDuz-116">
          <mxGeometry relative="1" as="geometry" />
        </mxCell>
        <mxCell id="-oCrgrcEi9n6i-i6rDuz-96" value="Events" style="strokeWidth=2;html=1;shape=mxgraph.flowchart.display;whiteSpace=wrap;" vertex="1" parent="1">
          <mxGeometry x="220" y="990" width="100" height="60" as="geometry" />
        </mxCell>
        <mxCell id="-oCrgrcEi9n6i-i6rDuz-115" style="edgeStyle=orthogonalEdgeStyle;rounded=0;orthogonalLoop=1;jettySize=auto;html=1;" edge="1" parent="1" source="-oCrgrcEi9n6i-i6rDuz-97" target="-oCrgrcEi9n6i-i6rDuz-114">
          <mxGeometry relative="1" as="geometry" />
        </mxCell>
        <mxCell id="-oCrgrcEi9n6i-i6rDuz-97" value="Connect" style="strokeWidth=2;html=1;shape=mxgraph.flowchart.display;whiteSpace=wrap;" vertex="1" parent="1">
          <mxGeometry x="220" y="1080" width="100" height="60" as="geometry" />
        </mxCell>
        <mxCell id="-oCrgrcEi9n6i-i6rDuz-104" style="edgeStyle=orthogonalEdgeStyle;rounded=0;orthogonalLoop=1;jettySize=auto;html=1;" edge="1" parent="1" source="-oCrgrcEi9n6i-i6rDuz-98" target="-oCrgrcEi9n6i-i6rDuz-103">
          <mxGeometry relative="1" as="geometry" />
        </mxCell>
        <mxCell id="-oCrgrcEi9n6i-i6rDuz-106" style="edgeStyle=orthogonalEdgeStyle;rounded=0;orthogonalLoop=1;jettySize=auto;html=1;entryX=0;entryY=0.5;entryDx=0;entryDy=0;" edge="1" parent="1" source="-oCrgrcEi9n6i-i6rDuz-98" target="-oCrgrcEi9n6i-i6rDuz-105">
          <mxGeometry relative="1" as="geometry" />
        </mxCell>
        <mxCell id="-oCrgrcEi9n6i-i6rDuz-98" value="Create" style="strokeWidth=2;html=1;shape=mxgraph.flowchart.display;whiteSpace=wrap;" vertex="1" parent="1">
          <mxGeometry x="220" y="1170" width="100" height="60" as="geometry" />
        </mxCell>
        <mxCell id="-oCrgrcEi9n6i-i6rDuz-99" style="edgeStyle=orthogonalEdgeStyle;rounded=0;orthogonalLoop=1;jettySize=auto;html=1;entryX=0;entryY=0.5;entryDx=0;entryDy=0;entryPerimeter=0;" edge="1" parent="1" source="-oCrgrcEi9n6i-i6rDuz-43" target="-oCrgrcEi9n6i-i6rDuz-95">
          <mxGeometry relative="1" as="geometry">
            <Array as="points">
              <mxPoint x="120" y="930" />
            </Array>
          </mxGeometry>
        </mxCell>
        <mxCell id="-oCrgrcEi9n6i-i6rDuz-100" style="edgeStyle=orthogonalEdgeStyle;rounded=0;orthogonalLoop=1;jettySize=auto;html=1;" edge="1" parent="1">
          <mxGeometry relative="1" as="geometry">
            <mxPoint x="100" y="910" as="sourcePoint" />
            <mxPoint x="220" y="1020" as="targetPoint" />
            <Array as="points">
              <mxPoint x="100" y="1020" />
            </Array>
          </mxGeometry>
        </mxCell>
        <mxCell id="-oCrgrcEi9n6i-i6rDuz-101" style="edgeStyle=orthogonalEdgeStyle;rounded=0;orthogonalLoop=1;jettySize=auto;html=1;entryX=0;entryY=0.5;entryDx=0;entryDy=0;entryPerimeter=0;" edge="1" parent="1" source="-oCrgrcEi9n6i-i6rDuz-43" target="-oCrgrcEi9n6i-i6rDuz-97">
          <mxGeometry relative="1" as="geometry">
            <Array as="points">
              <mxPoint x="80" y="1110" />
            </Array>
          </mxGeometry>
        </mxCell>
        <mxCell id="-oCrgrcEi9n6i-i6rDuz-102" style="edgeStyle=orthogonalEdgeStyle;rounded=0;orthogonalLoop=1;jettySize=auto;html=1;entryX=0;entryY=0.5;entryDx=0;entryDy=0;entryPerimeter=0;exitX=0.176;exitY=0.839;exitDx=0;exitDy=0;exitPerimeter=0;" edge="1" parent="1" source="-oCrgrcEi9n6i-i6rDuz-43" target="-oCrgrcEi9n6i-i6rDuz-98">
          <mxGeometry relative="1" as="geometry">
            <Array as="points">
              <mxPoint x="60" y="900" />
              <mxPoint x="60" y="1200" />
            </Array>
          </mxGeometry>
        </mxCell>
        <mxCell id="-oCrgrcEi9n6i-i6rDuz-103" value="" style="verticalLabelPosition=bottom;verticalAlign=top;html=1;shape=process;whiteSpace=wrap;rounded=1;size=0.14;arcSize=6;" vertex="1" parent="1">
          <mxGeometry x="390" y="1130" width="100" height="60" as="geometry" />
        </mxCell>
        <mxCell id="-oCrgrcEi9n6i-i6rDuz-105" value="" style="verticalLabelPosition=bottom;verticalAlign=top;html=1;shape=process;whiteSpace=wrap;rounded=1;size=0.14;arcSize=6;" vertex="1" parent="1">
          <mxGeometry x="390" y="1220" width="100" height="60" as="geometry" />
        </mxCell>
        <mxCell id="-oCrgrcEi9n6i-i6rDuz-107" value="Create Group" style="text;html=1;align=center;verticalAlign=middle;whiteSpace=wrap;rounded=0;" vertex="1" parent="1">
          <mxGeometry x="410" y="1145" width="60" height="30" as="geometry" />
        </mxCell>
        <mxCell id="-oCrgrcEi9n6i-i6rDuz-108" value="Create Event" style="text;html=1;align=center;verticalAlign=middle;whiteSpace=wrap;rounded=0;" vertex="1" parent="1">
          <mxGeometry x="410" y="1235" width="60" height="30" as="geometry" />
        </mxCell>
        <mxCell id="-oCrgrcEi9n6i-i6rDuz-109" value="&lt;div&gt;&lt;br&gt;&lt;/div&gt;Teams, Clubs, Organizers" style="strokeWidth=2;html=1;shape=mxgraph.flowchart.database;whiteSpace=wrap;" vertex="1" parent="1">
          <mxGeometry x="560" y="1125" width="100" height="70" as="geometry" />
        </mxCell>
        <mxCell id="-oCrgrcEi9n6i-i6rDuz-110" style="edgeStyle=orthogonalEdgeStyle;rounded=0;orthogonalLoop=1;jettySize=auto;html=1;entryX=0;entryY=0.5;entryDx=0;entryDy=0;entryPerimeter=0;" edge="1" parent="1" source="-oCrgrcEi9n6i-i6rDuz-103" target="-oCrgrcEi9n6i-i6rDuz-109">
          <mxGeometry relative="1" as="geometry" />
        </mxCell>
        <mxCell id="-oCrgrcEi9n6i-i6rDuz-111" value="&lt;div&gt;&lt;br&gt;&lt;/div&gt;&lt;div&gt;Events&lt;/div&gt;" style="strokeWidth=2;html=1;shape=mxgraph.flowchart.database;whiteSpace=wrap;" vertex="1" parent="1">
          <mxGeometry x="560" y="1210" width="100" height="70" as="geometry" />
        </mxCell>
        <mxCell id="-oCrgrcEi9n6i-i6rDuz-113" style="edgeStyle=orthogonalEdgeStyle;rounded=0;orthogonalLoop=1;jettySize=auto;html=1;entryX=0;entryY=0.571;entryDx=0;entryDy=0;entryPerimeter=0;" edge="1" parent="1" source="-oCrgrcEi9n6i-i6rDuz-105" target="-oCrgrcEi9n6i-i6rDuz-111">
          <mxGeometry relative="1" as="geometry" />
        </mxCell>
        <mxCell id="-oCrgrcEi9n6i-i6rDuz-114" value="Profiles" style="shape=parallelogram;perimeter=parallelogramPerimeter;whiteSpace=wrap;html=1;dashed=0;" vertex="1" parent="1">
          <mxGeometry x="400" y="1050" width="100" height="50" as="geometry" />
        </mxCell>
        <mxCell id="-oCrgrcEi9n6i-i6rDuz-116" value="Events" style="shape=parallelogram;perimeter=parallelogramPerimeter;whiteSpace=wrap;html=1;dashed=0;" vertex="1" parent="1">
          <mxGeometry x="410" y="970" width="100" height="50" as="geometry" />
        </mxCell>
      </root>
    </mxGraphModel>
  </diagram>
</mxfile>
